# xmcd
#
# Track frame offsets: 
#        150
#        9977
#        21242
#        32462
#        42902
#        55370
#        64115
#        73988
#        86108
#        96953
#        107201
#        118121
#        129742
#        141798
#        152796
#        164541
#        173061
#        182939
#        192809
#        203628
#
# Disc length: 2859 seconds
#
# Revision: 0
# Processed by: cddbd v1.5.2PL0 Copyright (c) Steve Scherf et al.
# Submitted via: ExactAudioCopy v1.0b3
#
DISCID=200b2914
DTITLE=Various Artist - Country and Western Greatest Love Songs - 200 O
DTITLE=riginal Recordings [CD 9,10)
DYEAR=1960
DGENRE=Country
TTITLE0=Jimmy C. Newman - You're Makin' A Fool Out Of Me
TTITLE1=Hank Snow - There's A Fool Such As I
TTITLE2=Bobby Helms - Jaqueline
TTITLE3=Jim Reeves - Two Shadows On Your Window
TTITLE4=Kitty Wells - Jealousy
TTITLE5=Johnnie and Jack - Lonely Island Pearl
TTITLE6=Don Gibson - What About Me
TTITLE7=Kenny Rogers - Lonely
TTITLE8=The Wilburn Brothers - Somebody's Back In Town
TTITLE9=Marty Robbins - Ain't I The Lucky One
TTITLE10=Hank Thompson - Squaws Along The Yukon
TTITLE11=Johnny Cash - I Still Miss Someone
TTITLE12=Carl Smith - Your Name Is Beautiful
TTITLE13=Sonny James - First Date, First Love, First Kiss
TTITLE14=Warner Mack - Is It Wrong
TTITLE15=Faron Young - That's The Way I Feel
TTITLE16=Hank Snow and Anita Carter - Down The Trail Of Achin' Hearts
TTITLE17=Skeeter Davis - Lost To A Geisha Girl
TTITLE18=Webb Pierce - Cryin' Over You
TTITLE19=Hank Williams - Moanin' The Blues
EXTD=
EXTT0=
EXTT1=
EXTT2=
EXTT3=
EXTT4=
EXTT5=
EXTT6=
EXTT7=
EXTT8=
EXTT9=
EXTT10=
EXTT11=
EXTT12=
EXTT13=
EXTT14=
EXTT15=
EXTT16=
EXTT17=
EXTT18=
EXTT19=
PLAYORDER=
